<svg width="88" height="88" xmlns="http://www.w3.org/2000/svg"><defs><linearGradient x1="15.635%" y1="11.857%" x2="103.78%" y2="105.034%" id="a"><stop stop-color="#FF5274" offset="0%"/><stop stop-color="#6446FA" offset="100%"/></linearGradient></defs><path d="M348 310c22.091 0 40-17.909 40-40s-17.909-40-40-40-40 17.909-40 40 17.909 40 40 40zm0 4c-24.3 0-44-19.7-44-44s19.7-44 44-44 44 19.7 44 44-19.7 44-44 44zm-9.044-29.25a6 6 0 11-.614 5.25h-5.275c-5.008 0-9.067-3.996-9.067-8.925 0-4.93 4.06-8.925 9.067-8.925h12.78L343.69 269h-10.622c-5.008 0-9.067-3.996-9.067-8.925 0-4.93 4.06-8.925 9.067-8.925 2.903 0 5.333 1.104 7.095 3.37.115.147.556.778 1.597 2.274l4.766 6.956h16.408c2.062 0 3.734-1.645 3.734-3.675s-1.672-3.675-3.734-3.675h-5.44a5.877 5.877 0 01-5.226 3.15c-3.24 0-5.867-2.586-5.867-5.775 0-3.19 2.627-5.775 5.867-5.775 2.28 0 4.256 1.28 5.227 3.15h5.44c5.007 0 9.066 3.996 9.066 8.925 0 4.93-4.06 8.925-9.067 8.925h-12.81l2.157 3.15h10.653c5.008 0 9.067 3.996 9.067 8.925 0 4.93-4.06 8.925-9.067 8.925-2.771 0-5.343-1.235-7.154-3.448l-1.32-1.834-5.014-7.318h-16.378c-2.062 0-3.734 1.645-3.734 3.675s1.672 3.675 3.734 3.675h5.889zm19.89-3.018l1.182 1.651a3.743 3.743 0 002.905 1.367c2.062 0 3.734-1.645 3.734-3.675s-1.672-3.675-3.734-3.675h-7.055l2.968 4.332zm-21.499-21.988a350.38 350.38 0 00-1.42-2.034c-.72-.925-1.568-1.31-2.86-1.31-2.062 0-3.734 1.645-3.734 3.675s1.672 3.675 3.734 3.675h7.025l-2.745-4.006z" transform="translate(-304 -226)" fill="url(#a)"/></svg>